<svg xmlns="http://www.w3.org/2000/svg" xmlns:xlink="http://www.w3.org/1999/xlink" width="200" zoomAndPan="magnify" viewBox="0 0 150 74.999997" height="100" preserveAspectRatio="xMidYMid meet" version="1.0"><defs><g/><clipPath id="1d84f18146"><path d="M 36.371094 22.722656 L 67.957031 22.722656 L 67.957031 52.648438 L 36.371094 52.648438 Z M 36.371094 22.722656 " clip-rule="nonzero"/></clipPath></defs><g clip-path="url(#1d84f18146)"><path fill="#ec1c24" d="M 64.703125 28.363281 L 64.703125 25.367188 L 62.136719 25.367188 L 62.136719 22.722656 L 56.5 22.722656 L 56.5 25.082031 L 53.191406 25.082031 L 53.191406 28.363281 L 51.140625 28.363281 L 51.140625 25.082031 L 47.832031 25.082031 L 47.832031 22.722656 L 42.191406 22.722656 L 42.191406 25.367188 L 39.628906 25.367188 L 39.628906 28.363281 L 36.382812 28.363281 L 36.382812 37.882812 L 39.351562 37.882812 L 39.351562 40.59375 L 42.191406 40.59375 L 42.191406 43.65625 L 45.011719 43.65625 L 45.011719 46.652344 L 47.832031 46.652344 L 47.832031 49.585938 L 50.777344 49.585938 L 50.777344 52.648438 L 53.554688 52.648438 L 53.554688 49.585938 L 56.5 49.585938 L 56.5 46.652344 L 59.320312 46.652344 L 59.320312 43.65625 L 62.136719 43.65625 L 62.136719 40.59375 L 64.980469 40.59375 L 64.980469 37.882812 L 67.949219 37.882812 L 67.949219 28.363281 Z M 64.703125 28.363281 " fill-opacity="1" fill-rule="nonzero"/></g><g fill="#ffffff" fill-opacity="1"><g transform="translate(13.261133, 51.430592)"><g><path d="M 8.890625 -0.078125 C 8.753906 -0.078125 8.4375 -0.109375 7.9375 -0.171875 C 7.6875 -0.191406 7.175781 -0.203125 6.40625 -0.203125 L 3.359375 -0.171875 C 3.054688 -0.191406 2.867188 -0.242188 2.796875 -0.328125 C 2.734375 -0.410156 2.703125 -0.53125 2.703125 -0.6875 C 2.703125 -0.84375 2.703125 -0.945312 2.703125 -1 L 2.65625 -3.203125 C 2.65625 -3.585938 2.644531 -3.921875 2.625 -4.203125 L 2.578125 -7.03125 C 2.578125 -7.4375 2.597656 -7.851562 2.640625 -8.28125 C 2.679688 -8.71875 2.703125 -9.035156 2.703125 -9.234375 C 2.785156 -9.867188 2.828125 -10.585938 2.828125 -11.390625 L 2.78125 -16.125 L 2.828125 -18.875 C 2.878906 -20.144531 2.90625 -21.113281 2.90625 -21.78125 C 2.90625 -23.332031 2.878906 -25.242188 2.828125 -27.515625 C 2.828125 -28.015625 2.890625 -28.347656 3.015625 -28.515625 C 3.140625 -28.679688 3.328125 -28.765625 3.578125 -28.765625 C 3.742188 -28.765625 3.914062 -28.75 4.09375 -28.71875 C 4.269531 -28.6875 4.484375 -28.671875 4.734375 -28.671875 L 7.890625 -28.765625 L 10.5625 -28.84375 C 10.894531 -28.84375 11.265625 -28.851562 11.671875 -28.875 C 12.085938 -28.90625 12.503906 -28.9375 12.921875 -28.96875 C 13.867188 -29.050781 14.644531 -29.09375 15.25 -29.09375 L 18.75 -29.046875 C 19.382812 -29.046875 19.703125 -28.835938 19.703125 -28.421875 L 19.703125 -26.34375 C 19.703125 -26.101562 19.648438 -25.960938 19.546875 -25.921875 C 19.453125 -25.878906 19.253906 -25.859375 18.953125 -25.859375 C 18.585938 -25.859375 18.269531 -25.867188 18 -25.890625 L 15.34375 -25.9375 C 14.28125 -25.9375 13.253906 -25.878906 12.265625 -25.765625 L 10.21875 -25.640625 L 10.09375 -24.890625 C 10.039062 -24.285156 10.015625 -23.800781 10.015625 -23.4375 L 9.96875 -19.75 L 9.9375 -17.625 L 9.9375 -16.625 C 10.519531 -16.625 10.945312 -16.640625 11.21875 -16.671875 L 13.21875 -16.703125 L 14.875 -16.75 C 15.269531 -16.78125 15.8125 -16.796875 16.5 -16.796875 C 16.945312 -16.796875 17.242188 -16.738281 17.390625 -16.625 C 17.546875 -16.507812 17.625 -16.328125 17.625 -16.078125 L 17.578125 -14.71875 C 17.578125 -14.488281 17.515625 -14.332031 17.390625 -14.25 C 17.265625 -14.164062 17.007812 -14.125 16.625 -14.125 C 16.125 -14.125 15.707031 -14.140625 15.375 -14.171875 L 13.71875 -14.21875 L 9.84375 -14.21875 C 9.84375 -13.5 9.859375 -12.972656 9.890625 -12.640625 L 9.9375 -10.015625 L 9.890625 -7.984375 C 9.835938 -7.097656 9.8125 -6.414062 9.8125 -5.9375 L 9.84375 -1.046875 C 9.84375 -0.679688 9.765625 -0.425781 9.609375 -0.28125 C 9.460938 -0.144531 9.222656 -0.078125 8.890625 -0.078125 Z M 8.890625 -0.078125 "/></g></g></g><g fill="#ffffff" fill-opacity="1"><g transform="translate(70.649491, 51.430592)"><g><path d="M 8.8125 -0.046875 C 8.363281 -0.046875 8.078125 -0.160156 7.953125 -0.390625 C 7.828125 -0.628906 7.722656 -1.039062 7.640625 -1.625 C 7.316406 -3.007812 6.320312 -6.816406 4.65625 -13.046875 C 4.4375 -13.910156 3.675781 -17.179688 2.375 -22.859375 L 1 -28.671875 C 0.945312 -28.898438 0.921875 -29.039062 0.921875 -29.09375 C 0.921875 -29.3125 1.070312 -29.421875 1.375 -29.421875 C 1.539062 -29.421875 1.734375 -29.398438 1.953125 -29.359375 C 2.171875 -29.316406 2.40625 -29.296875 2.65625 -29.296875 L 4.734375 -29.390625 L 7.28125 -29.46875 C 7.769531 -29.519531 8.097656 -29.441406 8.265625 -29.234375 C 8.429688 -29.023438 8.570312 -28.671875 8.6875 -28.171875 C 8.769531 -27.816406 9.003906 -26.320312 9.390625 -23.6875 L 9.6875 -21.65625 C 9.820312 -20.769531 10.195312 -18.828125 10.8125 -15.828125 L 11.71875 -11.71875 L 12.265625 -14.171875 C 12.515625 -15.273438 12.734375 -16.535156 12.921875 -17.953125 C 12.953125 -18.335938 13.082031 -19.019531 13.3125 -20 C 13.550781 -20.988281 13.726562 -21.734375 13.84375 -22.234375 C 14.675781 -25.304688 15.0625 -27.21875 15 -27.96875 C 14.945312 -28.6875 15.015625 -29.128906 15.203125 -29.296875 C 15.398438 -29.460938 15.628906 -29.539062 15.890625 -29.53125 C 16.160156 -29.519531 16.335938 -29.515625 16.421875 -29.515625 C 19.046875 -29.515625 20.691406 -29.472656 21.359375 -29.390625 C 21.671875 -29.359375 21.878906 -29.300781 21.984375 -29.21875 C 22.097656 -29.132812 22.15625 -29.023438 22.15625 -28.890625 C 22.15625 -28.742188 22.113281 -28.519531 22.03125 -28.21875 C 21.894531 -27.863281 21.628906 -26.8125 21.234375 -25.0625 L 21.03125 -24.140625 C 20.007812 -18.910156 19.207031 -15.253906 18.625 -13.171875 C 18.175781 -11.398438 17.691406 -8.769531 17.171875 -5.28125 C 16.691406 -2.59375 16.425781 -1.179688 16.375 -1.046875 C 16.289062 -0.765625 16.207031 -0.570312 16.125 -0.46875 C 16.039062 -0.375 15.914062 -0.328125 15.75 -0.328125 L 15.09375 -0.375 L 12.296875 -0.203125 C 10.359375 -0.0976562 9.195312 -0.046875 8.8125 -0.046875 Z M 8.8125 -0.046875 "/></g></g></g><g fill="#ffffff" fill-opacity="1"><g transform="translate(90.844346, 51.430592)"><g><path d="M 3.484375 0 C 3.078125 0 2.835938 -0.0859375 2.765625 -0.265625 C 2.691406 -0.453125 2.671875 -0.832031 2.703125 -1.40625 C 2.703125 -2.320312 2.6875 -3.195312 2.65625 -4.03125 L 2.578125 -9.140625 C 2.578125 -9.921875 2.601562 -10.734375 2.65625 -11.578125 C 2.71875 -12.421875 2.757812 -13.175781 2.78125 -13.84375 C 2.925781 -15.832031 3 -17.226562 3 -18.03125 L 3.078125 -25.859375 L 3.03125 -28.09375 C 3.03125 -29.0625 3.097656 -29.617188 3.234375 -29.765625 C 3.316406 -29.847656 3.414062 -29.890625 3.53125 -29.890625 C 3.582031 -29.890625 3.675781 -29.867188 3.8125 -29.828125 C 3.957031 -29.785156 4.113281 -29.765625 4.28125 -29.765625 L 5.5625 -29.796875 C 6.09375 -29.796875 6.484375 -29.769531 6.734375 -29.71875 C 6.984375 -29.632812 7.160156 -29.429688 7.265625 -29.109375 C 7.378906 -28.796875 7.476562 -28.4375 7.5625 -28.03125 C 7.644531 -27.632812 7.710938 -27.320312 7.765625 -27.09375 C 7.910156 -26.351562 8.238281 -25.316406 8.75 -23.984375 C 9.257812 -22.648438 9.75 -21.484375 10.21875 -20.484375 C 10.613281 -19.828125 11.132812 -18.753906 11.78125 -17.265625 C 12.4375 -15.785156 12.898438 -14.613281 13.171875 -13.75 C 13.335938 -13.3125 13.570312 -12.757812 13.875 -12.09375 L 14.5 -10.59375 L 15.375 -8.640625 C 16.175781 -10.222656 16.757812 -11.375 17.125 -12.09375 L 19.828125 -17.5 L 21.703125 -21.234375 C 22.671875 -23.234375 23.320312 -24.523438 23.65625 -25.109375 C 24.175781 -26.179688 24.726562 -27.179688 25.3125 -28.109375 C 25.894531 -29.046875 26.3125 -29.515625 26.5625 -29.515625 C 26.78125 -29.515625 26.890625 -29.332031 26.890625 -28.96875 C 26.890625 -28.632812 26.820312 -28.191406 26.6875 -27.640625 L 26.515625 -26.59375 C 26.398438 -25.851562 26.34375 -22.53125 26.34375 -16.625 C 26.34375 -15.320312 26.304688 -13.742188 26.234375 -11.890625 C 26.171875 -10.035156 26.113281 -8.800781 26.0625 -8.1875 C 26.007812 -7.46875 25.984375 -6.398438 25.984375 -4.984375 L 26.015625 -0.953125 L 26.015625 -0.75 C 26.015625 -0.414062 25.929688 -0.273438 25.765625 -0.328125 L 25.6875 -0.328125 C 25.550781 -0.328125 25.390625 -0.3125 25.203125 -0.28125 C 25.023438 -0.257812 24.835938 -0.25 24.640625 -0.25 C 24.535156 -0.28125 24.460938 -0.347656 24.421875 -0.453125 C 24.378906 -0.566406 24.359375 -0.765625 24.359375 -1.046875 L 24.359375 -3.484375 C 24.359375 -6.316406 24.382812 -7.984375 24.4375 -8.484375 C 24.488281 -9.066406 24.550781 -10.144531 24.625 -11.71875 C 24.695312 -13.300781 24.734375 -14.578125 24.734375 -15.546875 C 24.703125 -15.796875 24.710938 -16.570312 24.765625 -17.875 L 24.8125 -19.375 L 24.890625 -22.359375 C 24.703125 -22.078125 24.535156 -21.785156 24.390625 -21.484375 C 24.117188 -21.015625 23.859375 -20.503906 23.609375 -19.953125 L 23.1875 -19.125 C 22.71875 -18.207031 22.175781 -17.128906 21.5625 -15.890625 C 20.957031 -14.660156 20.429688 -13.617188 19.984375 -12.765625 C 19.492188 -11.765625 18.863281 -10.476562 18.09375 -8.90625 C 17.332031 -7.34375 16.742188 -6.109375 16.328125 -5.203125 C 15.609375 -3.503906 15.195312 -2.65625 15.09375 -2.65625 C 15.007812 -2.65625 14.882812 -2.789062 14.71875 -3.0625 C 14.550781 -3.34375 14.4375 -3.523438 14.375 -3.609375 C 14.1875 -3.921875 13.882812 -4.566406 13.46875 -5.546875 C 13.050781 -6.535156 12.71875 -7.398438 12.46875 -8.140625 C 12.300781 -8.640625 11.582031 -10.039062 10.3125 -12.34375 C 9.3125 -14.257812 8.796875 -15.257812 8.765625 -15.34375 C 8.492188 -15.894531 8.117188 -16.820312 7.640625 -18.125 C 7.335938 -18.8125 7.101562 -19.421875 6.9375 -19.953125 L 6.859375 -18.125 L 6.78125 -15.296875 L 6.6875 -7.109375 L 6.65625 -0.625 C 6.65625 -0.375 6.582031 -0.21875 6.4375 -0.15625 C 6.300781 -0.101562 6.132812 -0.0820312 5.9375 -0.09375 C 5.75 -0.113281 5.597656 -0.125 5.484375 -0.125 L 4.578125 -0.078125 C 4.078125 -0.0234375 3.710938 0 3.484375 0 Z M 3.484375 0 "/></g></g></g><g fill="#ffffff" fill-opacity="1"><g transform="translate(117.604848, 51.430592)"><g><path d="M 5.234375 0.125 C 4.898438 0.125 4.734375 0.0390625 4.734375 -0.125 C 4.734375 -0.207031 4.753906 -0.28125 4.796875 -0.34375 C 4.835938 -0.414062 4.875 -0.492188 4.90625 -0.578125 L 5.359375 -1.828125 C 5.992188 -3.628906 6.328125 -4.554688 6.359375 -4.609375 C 6.410156 -4.835938 6.675781 -5.585938 7.15625 -6.859375 L 7.484375 -7.6875 C 7.535156 -7.820312 7.613281 -8.007812 7.71875 -8.25 C 7.832031 -8.488281 7.894531 -8.679688 7.90625 -8.828125 C 7.925781 -8.984375 7.910156 -9.128906 7.859375 -9.265625 C 7.796875 -9.347656 7.671875 -9.75 7.484375 -10.46875 C 7.421875 -10.632812 7.304688 -11 7.140625 -11.5625 C 6.984375 -12.132812 6.820312 -12.578125 6.65625 -12.890625 C 6.488281 -13.304688 6.265625 -13.984375 5.984375 -14.921875 C 5.785156 -15.554688 5.601562 -16.125 5.4375 -16.625 C 5 -17.84375 4.453125 -19.40625 3.796875 -21.3125 C 3.148438 -23.226562 2.632812 -24.769531 2.25 -25.9375 C 2.101562 -26.375 1.921875 -26.816406 1.703125 -27.265625 C 1.503906 -27.710938 1.40625 -28.003906 1.40625 -28.140625 C 1.40625 -28.328125 1.507812 -28.457031 1.71875 -28.53125 C 1.925781 -28.601562 2.238281 -28.648438 2.65625 -28.671875 C 2.769531 -28.703125 2.992188 -28.71875 3.328125 -28.71875 C 3.742188 -28.71875 4.078125 -28.703125 4.328125 -28.671875 C 5.234375 -28.671875 5.800781 -28.660156 6.03125 -28.640625 C 6.25 -28.609375 6.390625 -28.550781 6.453125 -28.46875 C 6.523438 -28.382812 6.5625 -28.273438 6.5625 -28.140625 C 6.5625 -28.003906 6.578125 -27.878906 6.609375 -27.765625 C 6.890625 -26.796875 7.25 -25.644531 7.6875 -24.3125 L 7.984375 -23.359375 C 8.398438 -21.941406 8.734375 -20.957031 8.984375 -20.40625 C 9.335938 -19.570312 9.722656 -18.519531 10.140625 -17.25 C 10.585938 -15.914062 10.8125 -15.25 10.8125 -15.25 L 11.140625 -16.296875 C 11.304688 -16.898438 11.5 -17.492188 11.71875 -18.078125 L 12.171875 -19.328125 L 12.59375 -20.40625 C 12.59375 -20.40625 12.734375 -20.765625 13.015625 -21.484375 C 13.234375 -22.097656 13.398438 -22.5 13.515625 -22.6875 C 13.734375 -23.132812 14 -23.847656 14.3125 -24.828125 C 14.632812 -25.816406 14.878906 -26.695312 15.046875 -27.46875 C 15.179688 -28.019531 15.351562 -28.363281 15.5625 -28.5 C 15.769531 -28.644531 15.984375 -28.707031 16.203125 -28.6875 C 16.429688 -28.675781 16.570312 -28.671875 16.625 -28.671875 C 16.707031 -28.671875 17.050781 -28.675781 17.65625 -28.6875 C 18.269531 -28.707031 18.800781 -28.691406 19.25 -28.640625 C 19.820312 -28.554688 20.109375 -28.414062 20.109375 -28.21875 C 20.109375 -28.1875 20.082031 -28.0625 20.03125 -27.84375 C 19.976562 -27.707031 19.914062 -27.535156 19.84375 -27.328125 C 19.78125 -27.117188 19.707031 -26.890625 19.625 -26.640625 C 18.957031 -24.671875 18.523438 -23.46875 18.328125 -23.03125 C 17.828125 -21.8125 17.222656 -20.285156 16.515625 -18.453125 C 15.816406 -16.617188 15.21875 -15.039062 14.71875 -13.71875 C 14.382812 -12.75 13.632812 -10.820312 12.46875 -7.9375 C 11.46875 -5.550781 10.925781 -4.179688 10.84375 -3.828125 C 10.738281 -3.492188 10.625 -2.957031 10.5 -2.21875 C 10.375 -1.488281 10.28125 -1.015625 10.21875 -0.796875 C 10.082031 -0.210938 9.863281 0.0664062 9.5625 0.046875 L 8.4375 0.046875 C 8.269531 0.0664062 7.71875 0.078125 6.78125 0.078125 Z M 5.234375 0.125 "/></g></g></g></svg>